<svg width="226" height="226" viewBox="0 0 226 226" fill="none" xmlns="http://www.w3.org/2000/svg">
<path d="M56 116C56 156.9 89.1 190 130 190C170.9 190 204 156.9 204 116C204 75.1 170.9 42 130 42C89.1 42 56 75.1 56 116Z" fill="#F0F1F2"/>
<mask id="mask0_5_954" style="mask-type:luminance" maskUnits="userSpaceOnUse" x="56" y="42" width="148" height="148">
<path d="M56 116C56 156.9 89.1 190 130 190C170.9 190 204 156.9 204 116C204 75.1 170.9 42 130 42C89.1 42 56 75.1 56 116Z" fill="#F0F1F2"/>
</mask>
<g mask="url(#mask0_5_954)">
<g filter="url(#filter0_d_5_954)">
<path d="M130 190C121.6 190 113.5 188.6 106 186V96C106 94.9391 106.421 93.9217 107.172 93.1716C107.922 92.4214 108.939 92 110 92H200C202.6 99.5 204 107.6 204 116C204 156.9 170.9 190 130 190Z" fill="white"/>
</g>
<path d="M207 91H110C108.939 91 107.922 91.4214 107.172 92.1716C106.421 92.9217 106 93.9391 106 95V107H207V91Z" fill="#828A91"/>
<path d="M115 103C116.657 103 118 101.657 118 100C118 98.3431 116.657 97 115 97C113.343 97 112 98.3431 112 100C112 101.657 113.343 103 115 103Z" fill="#EC856F"/>
<path d="M125 103C126.657 103 128 101.657 128 100C128 98.3431 126.657 97 125 97C123.343 97 122 98.3431 122 100C122 101.657 123.343 103 125 103Z" fill="#E9AF58"/>
<path d="M122 176H192V190H122V176Z" fill="#E8E9EB"/>
<path d="M184 119H124C122.343 119 121 120.343 121 122C121 123.657 122.343 125 124 125H184C185.657 125 187 123.657 187 122C187 120.343 185.657 119 184 119Z" fill="#B6BABF"/>
<path d="M172 132H124C122.343 132 121 133.343 121 135C121 136.657 122.343 138 124 138H172C173.657 138 175 136.657 175 135C175 133.343 173.657 132 172 132Z" fill="#B6BABF"/>
</g>
<g filter="url(#filter1_d_5_954)">
<path d="M27.427 149H153.584C156.03 149 158.011 147.387 158 145.396V40C158 38.9391 157.579 37.9217 156.828 37.1716C156.078 36.4214 155.061 36 154 36H27C25.9391 36 24.9217 36.4214 24.1716 37.1716C23.4214 37.9217 23 38.9391 23 40V145.396C23 147.387 24.98 149 27.427 149Z" fill="white"/>
</g>
<path d="M36 110H147V132C147 133.061 146.579 134.078 145.828 134.828C145.078 135.579 144.061 136 143 136H40C38.9391 136 37.9217 135.579 37.1716 134.828C36.4214 134.078 36 133.061 36 132V110Z" fill="#EC856F"/>
<path d="M36 78H147V106H36V78Z" fill="#E9AF58"/>
<path d="M36 52C36 50.9391 36.4214 49.9217 37.1716 49.1716C37.9217 48.4214 38.9391 48 40 48H143C144.061 48 145.078 48.4214 145.828 49.1716C146.579 49.9217 147 50.9391 147 52V74H36V52Z" fill="#7FBEC6"/>
<path d="M136 59H67C65.3431 59 64 60.3431 64 62C64 63.6569 65.3431 65 67 65H136C137.657 65 139 63.6569 139 62C139 60.3431 137.657 59 136 59Z" fill="#3C8B96"/>
<path d="M136 89H67C65.3431 89 64 90.3431 64 92C64 93.6569 65.3431 95 67 95H136C137.657 95 139 93.6569 139 92C139 90.3431 137.657 89 136 89Z" fill="#D9942D"/>
<path d="M136 120H67C65.3431 120 64 121.343 64 123C64 124.657 65.3431 126 67 126H136C137.657 126 139 124.657 139 123C139 121.343 137.657 120 136 120Z" fill="#CD5747"/>
<path d="M145 165H94C89.6 165 86 161.4 86 157V149H90V157C90 159.2 91.8 161 94 161H145V165Z" fill="#42474C"/>
<path d="M151 159C153.2 159 155 160.8 155 163C155 165.2 153.2 167 151 167C148.8 167 147 165.2 147 163C147 160.8 148.8 159 151 159ZM151 155C146.6 155 143 158.6 143 163C143 167.4 146.6 171 151 171C155.4 171 159 167.4 159 163C159 158.6 155.4 155 151 155Z" fill="#42474C"/>
<path fill-rule="evenodd" clip-rule="evenodd" d="M52.383 84.622L56.611 96.462C56.6805 96.6561 56.8083 96.8241 56.977 96.9428C57.1456 97.0615 57.3468 97.1251 57.553 97.125H58.063C58.3117 97.125 58.5501 97.2238 58.7259 97.3996C58.9017 97.5754 59.0005 97.8139 59.0005 98.0625C59.0005 98.3111 58.9017 98.5496 58.7259 98.7254C58.5501 98.9012 58.3117 99 58.063 99H53.375C53.1264 99 52.8879 98.9012 52.7121 98.7254C52.5363 98.5496 52.4375 98.3111 52.4375 98.0625C52.4375 97.8139 52.5363 97.5754 52.7121 97.3996C52.8879 97.2238 53.1264 97.125 53.375 97.125C53.64 97.125 53.825 96.862 53.736 96.612L52.916 94.312H48.21L47.388 96.612C47.299 96.862 47.485 97.125 47.75 97.125C47.9987 97.125 48.2371 97.2238 48.4129 97.3996C48.5887 97.5754 48.6875 97.8139 48.6875 98.0625C48.6875 98.3111 48.5887 98.5496 48.4129 98.7254C48.2371 98.9012 47.9987 99 47.75 99H44.937C44.6884 99 44.4499 98.9012 44.2741 98.7254C44.0983 98.5496 43.9995 98.3111 43.9995 98.0625C43.9995 97.8139 44.0983 97.5754 44.2741 97.3996C44.4499 97.2238 44.6884 97.125 44.937 97.125C45.018 97.125 45.0969 97.1001 45.1632 97.0536C45.2294 97.007 45.2796 96.9412 45.307 96.865L49.68 84.622C49.7451 84.44 49.8649 84.2825 50.023 84.1712C50.1811 84.0598 50.3697 84 50.563 84H51.5C51.896 84 52.25 84.25 52.383 84.622ZM48.879 92.438L50.563 87.725L52.246 92.438H48.879Z" fill="#D9942D"/>
<path fill-rule="evenodd" clip-rule="evenodd" d="M49.425 117.16C49.4366 117.02 49.4205 116.879 49.3776 116.745C49.3347 116.611 49.2657 116.486 49.1748 116.379C49.0838 116.271 48.9726 116.183 48.8475 116.119C48.7224 116.054 48.5858 116.015 48.4455 116.004C48.3053 115.992 48.1641 116.008 48.0301 116.051C47.8961 116.094 47.7718 116.163 47.6644 116.254C47.4475 116.437 47.3125 116.7 47.289 116.983L47.103 119.214H44.071C43.7925 119.223 43.5283 119.339 43.3343 119.539C43.1403 119.739 43.0318 120.007 43.0318 120.285C43.0318 120.564 43.1403 120.832 43.3343 121.032C43.5283 121.232 43.7925 121.348 44.071 121.357H46.925L46.568 125.643H44.07C43.7915 125.652 43.5273 125.768 43.3333 125.968C43.1393 126.168 43.0308 126.436 43.0308 126.714C43.0308 126.993 43.1393 127.261 43.3333 127.461C43.5273 127.661 43.7915 127.777 44.07 127.786H46.388L46.217 129.84C46.2054 129.98 46.2215 130.121 46.2644 130.255C46.3073 130.389 46.3762 130.513 46.4671 130.621C46.558 130.728 46.6692 130.816 46.7942 130.881C46.9193 130.945 47.0558 130.984 47.196 130.996C47.3362 131.008 47.4773 130.992 47.6113 130.949C47.7452 130.906 47.8694 130.837 47.9768 130.746C48.0841 130.655 48.1725 130.544 48.2369 130.419C48.3013 130.294 48.3404 130.157 48.352 130.017L48.538 127.786H51.745L51.575 129.84C51.5634 129.98 51.5795 130.121 51.6224 130.255C51.6653 130.389 51.7342 130.513 51.8251 130.621C51.916 130.728 52.0272 130.816 52.1522 130.881C52.2773 130.945 52.4138 130.984 52.554 130.996C52.6942 131.008 52.8353 130.992 52.9693 130.949C53.1032 130.906 53.2274 130.837 53.3348 130.746C53.4421 130.655 53.5305 130.544 53.5949 130.419C53.6593 130.294 53.6984 130.157 53.71 130.017L53.896 127.786H56.928C57.2065 127.777 57.4708 127.661 57.6648 127.461C57.8588 127.261 57.9673 126.993 57.9673 126.714C57.9673 126.436 57.8588 126.168 57.6648 125.968C57.4708 125.768 57.2065 125.652 56.928 125.643H54.074L54.431 121.357H56.928C57.2065 121.348 57.4708 121.232 57.6648 121.032C57.8588 120.832 57.9673 120.564 57.9673 120.285C57.9673 120.007 57.8588 119.739 57.6648 119.539C57.4708 119.339 57.2065 119.223 56.928 119.214H54.61L54.781 117.16C54.8045 116.877 54.7145 116.596 54.5309 116.379C54.3473 116.162 54.0851 116.027 53.802 116.004C53.5189 115.981 53.2381 116.07 53.0213 116.254C52.8045 116.438 52.6695 116.7 52.646 116.983L52.46 119.214H49.253L49.423 117.16H49.425ZM51.925 125.643L52.282 121.357H49.075L48.718 125.643H51.925Z" fill="#CD5747"/>
<path fill-rule="evenodd" clip-rule="evenodd" d="M50.1119 58.91L49.2879 58.087C49.1121 57.9112 48.8736 57.8124 48.6249 57.8124C48.3762 57.8124 48.1377 57.9112 47.9619 58.087C47.7861 58.2628 47.6873 58.5013 47.6873 58.75C47.6873 58.9987 47.7861 59.2372 47.9619 59.413L48.7859 60.237L43.8239 65.199C43.2965 65.7264 43.0002 66.4417 43.0002 67.1875C43.0002 67.9333 43.2965 68.6486 43.8239 69.176C44.3513 69.7034 45.0666 69.9997 45.8124 69.9997C46.5582 69.9997 47.2735 69.7034 47.8009 69.176L52.7629 64.214L53.5869 65.038C53.7627 65.2138 54.0012 65.3126 54.2499 65.3126C54.4986 65.3126 54.7371 65.2138 54.9129 65.038C55.0887 64.8622 55.1875 64.6237 55.1875 64.375C55.1875 64.1263 55.0887 63.8878 54.9129 63.712L54.0889 62.888L57.1759 59.801C57.7033 59.2736 57.9996 58.5583 57.9996 57.8125C57.9996 57.0667 57.7033 56.3514 57.1759 55.824C56.6485 55.2966 55.9332 55.0003 55.1874 55.0003C54.4416 55.0003 53.7263 55.2966 53.1989 55.824L50.1119 58.91ZM50.1119 61.563L51.4369 62.888L46.4749 67.85C46.2984 68.0218 46.0613 68.1173 45.815 68.1156C45.5687 68.114 45.3329 68.0154 45.1587 67.8412C44.9845 67.667 44.8859 67.4312 44.8843 67.1849C44.8826 66.9386 44.9781 66.7015 45.1499 66.525L50.1119 61.563Z" fill="#3C8B96"/>
<defs>
<filter id="filter0_d_5_954" x="96" y="84" width="118" height="118" filterUnits="userSpaceOnUse" color-interpolation-filters="sRGB">
<feFlood flood-opacity="0" result="BackgroundImageFix"/>
<feColorMatrix in="SourceAlpha" type="matrix" values="0 0 0 0 0 0 0 0 0 0 0 0 0 0 0 0 0 0 127 0" result="hardAlpha"/>
<feOffset dy="2"/>
<feGaussianBlur stdDeviation="5"/>
<feColorMatrix type="matrix" values="0 0 0 0 0 0 0 0 0 0 0 0 0 0 0 0 0 0 0.3 0"/>
<feBlend mode="normal" in2="BackgroundImageFix" result="effect1_dropShadow_5_954"/>
<feBlend mode="normal" in="SourceGraphic" in2="effect1_dropShadow_5_954" result="shape"/>
</filter>
<filter id="filter1_d_5_954" x="18" y="32" width="145" height="123" filterUnits="userSpaceOnUse" color-interpolation-filters="sRGB">
<feFlood flood-opacity="0" result="BackgroundImageFix"/>
<feColorMatrix in="SourceAlpha" type="matrix" values="0 0 0 0 0 0 0 0 0 0 0 0 0 0 0 0 0 0 127 0" result="hardAlpha"/>
<feOffset dy="1"/>
<feGaussianBlur stdDeviation="2.5"/>
<feColorMatrix type="matrix" values="0 0 0 0 0 0 0 0 0 0 0 0 0 0 0 0 0 0 0.3 0"/>
<feBlend mode="normal" in2="BackgroundImageFix" result="effect1_dropShadow_5_954"/>
<feBlend mode="normal" in="SourceGraphic" in2="effect1_dropShadow_5_954" result="shape"/>
</filter>
</defs>
</svg>
