<?xml version="1.0" encoding="UTF-8"?>
<!-- Generated by Pixelmator Pro 3.5.1 -->
<svg width="226" height="226" viewBox="0 0 226 226" xmlns="http://www.w3.org/2000/svg">
    <path id="Path" fill="#f0f1f2" stroke="none" d="M 39 113 C 39 153.869064 72.130928 187 113 187 C 153.869064 187 187 153.869064 187 113 C 187 72.13092 153.869064 39 113 39 C 72.130928 39 39 72.13092 39 113 Z"/>
    <clipPath id="clipPath1">
        <path d="M 39 113 C 39 153.869064 72.130928 187 113 187 L 113 39 C 72.130928 39 39 72.13092 39 113 Z"/>
    </clipPath>
    <g id="Group" clip-path="url(#clipPath1)">
        <g id="g1">
            <path id="path1" fill="#ffffff" stroke="none" d="M 101 60.399994 C 101 58.699997 99.599998 57.399994 97.800003 57.399994 L 31.200001 57.399994 C 29.4 57.399994 28 58.699997 28 60.399994 L 28 166.399994 C 28 168.100006 29.4 169.399994 31.200001 169.399994 L 97.800003 169.399994 C 99.599998 169.399994 101 168.100006 101 166.399994 L 101 60.399994 Z"/>
        </g>
        <path id="path2" fill="#e8e9eb" stroke="none" d="M 42 90 L 87 90 L 87 135 L 42 135 L 42 90 Z"/>
        <path id="path3" fill="#9fa5ab" fill-rule="evenodd" stroke="none" d="M 56.5 111.300003 C 60.172695 111.300003 63.150002 108.322693 63.150002 104.650002 C 63.150002 100.977303 60.172695 98 56.5 98 C 52.827305 98 49.849998 100.97731 49.849998 104.650002 C 49.849998 108.322693 52.827305 111.300003 56.5 111.300003 Z M 56.5 114.300003 C 61.829548 114.300003 66.150002 109.979546 66.150002 104.650002 C 66.150002 99.32045 61.829548 95 56.5 95 C 51.170452 95 46.849998 99.32045 46.849998 104.650002 C 46.849998 109.979546 51.170452 114.300003 56.5 114.300003 Z"/>
        <path id="path4" fill="#b6babf" stroke="none" d="M 81 95 L 56 95 L 54 135 L 80 135 L 76 105 L 81 97 L 81 95 Z"/>
        <path id="path5" fill="#9fa5ab" stroke="none" d="M 55.900002 95 L 61 95 L 61 135 L 54 135 L 55.799999 95 Z"/>
        <path id="path6" fill="#f0f1f2" stroke="none" d="M 53 145 C 53 143.34314 54.343147 142 56 142 L 72 142 C 73.656853 142 75 143.34314 75 145 L 75 157 C 75 158.65686 73.656853 160 72 160 L 56 160 C 54.343147 160 53 158.65686 53 157 L 53 145 Z"/>
        <path id="path7" fill="#6b7177" stroke="none" visibility="hidden" d="M 67 152.5 L 67 152.199997 C 67 150.699997 66 149.899994 64.599998 149.899994 C 63.935551 149.86734 63.298351 150.167191 62.900002 150.699997 L 62.900002 150.5 C 62.900002 149.199997 63.299999 148.600006 63.900002 148.600006 C 64.400002 148.600006 64.599998 148.899994 64.699997 149.300003 L 66.699997 149.100006 C 66.599998 147.899994 65.599998 147.100006 64 147.100006 C 62.099998 147.100006 60.700001 148.300003 60.700001 150.699997 L 60.700001 151.699997 C 60.700001 153.699997 61.700001 155.100006 64 155.100006 C 65.800003 155.100006 67 154.100006 67 152.5 Z M 64 153.5 C 63.299999 153.5 63 153.100006 63 152.5 L 63 152.300003 C 63 151.699997 63.299999 151.300003 64 151.300003 C 64.5 151.300003 64.900002 151.699997 64.900002 152.300003 L 64.900002 152.5 C 64.900002 153.199997 64.5 153.5 63.900002 153.5 Z"/>
    </g>
    <path id="path8" fill="#5ba7b1" stroke="none" visibility="hidden" d="M 87 73.399994 C 88.104568 73.399994 89 72.504578 89 71.399994 C 89 70.295441 88.104568 69.399994 87 69.399994 C 85.895432 69.399994 85 70.295441 85 71.399994 C 85 72.5 85.900002 73.399994 87 73.399994 Z M 87 65.399994 C 90.300003 65.399994 93 68.300003 93 71.800003 C 93 77.800003 87.599998 81.100006 87.400002 81.300003 L 87 81.399994 L 86.599998 81.300003 C 86.400002 81.100006 81 77.800003 81 71.800003 C 81 68.300003 83.699997 65.399994 87 65.399994 Z"/>
    <g id="g2">
        <path id="path9" fill="#ffffff" stroke="none" d="M 198 60.399994 C 198 58.743149 196.65686 57.399994 195 57.399994 L 128 57.399994 C 126.343147 57.399994 125 58.743149 125 60.399994 L 125 166.399994 C 125 168.056854 126.343147 169.399994 128 169.399994 L 195 169.399994 C 196.65686 169.399994 198 168.056854 198 166.399994 L 198 60.399994 Z"/>
    </g>
    <path id="path10" fill="#b6babf" stroke="none" d="M 169 73.399994 C 169 71.743149 167.65686 70.399994 166 70.399994 L 142 70.399994 C 140.34314 70.399994 139 71.743149 139 73.399994 C 139 75.056854 140.34314 76.399994 142 76.399994 L 166 76.399994 C 167.65686 76.399994 169 75.056854 169 73.399994 Z"/>
    <path id="Tag" fill="#108060" fill-rule="evenodd" stroke="none" d="M 191.6866 73.389801 L 184.184875 80.890854 C 183.507019 81.568604 182.408112 81.568604 181.73027 80.890854 L 176.558365 75.719269 C 176.232864 75.393829 176.050003 74.952393 176.050003 74.492111 C 176.050003 74.03183 176.232864 73.590408 176.558365 73.264969 L 184.060226 65.763916 C 184.292587 65.531464 184.607788 65.400864 184.936478 65.400818 L 188.447037 65.400818 C 188.775711 65.400864 189.090912 65.531464 189.323288 65.763916 L 191.6866 68.126984 C 191.919266 68.359467 192.049988 68.674881 192.050003 69.003784 L 192.050003 72.513733 C 192.049789 72.842377 191.919067 73.157486 191.6866 73.389801 Z M 187.274994 69.183624 C 186.727005 69.183624 186.282776 69.627853 186.282776 70.175842 C 186.282776 70.723831 186.727005 71.16806 187.274994 71.16806 C 187.822968 71.16806 188.267197 70.723831 188.267197 70.175842 C 188.267197 69.627853 187.822968 69.183624 187.274994 69.183624 Z"/>
    <path id="path11" fill="#e8e9eb" stroke="none" d="M 139 91 L 184 91 L 184 136 L 139 136 L 139 91 Z"/>
    <path id="path12" fill="#3c8b96" fill-rule="evenodd" stroke="none" d="M 153.399994 112.300003 C 157.072693 112.300003 160.050003 109.322693 160.050003 105.650002 C 160.050003 101.977303 157.072693 99 153.399994 99 C 149.72731 99 146.75 101.97731 146.75 105.650002 C 146.75 109.322693 149.72731 112.300003 153.399994 112.300003 Z M 153.399994 115.300003 C 158.729553 115.300003 163.050003 110.979546 163.050003 105.650002 C 163.050003 100.32045 158.729553 96 153.399994 96 C 148.07045 96 143.75 100.32045 143.75 105.650002 C 143.75 110.979546 148.07045 115.300003 153.399994 115.300003 Z"/>
    <path id="path13" fill="#5ba7b1" stroke="none" d="M 178 96 L 152.800003 96 L 151 136 L 177 136 L 173 106 L 178 98 L 178 96 Z"/>
    <path id="path14" fill="#3c8b96" stroke="none" d="M 152.800003 96 L 158 96 L 158 136 L 151 136 L 152.800003 96 Z"/>
    <path id="path15" fill="#f0f1f2" stroke="none" d="M 150 145 C 150 143.34314 151.34314 142 153 142 L 169 142 C 170.65686 142 172 143.34314 172 145 L 172 157 C 172 158.65686 170.65686 160 169 160 L 153 160 C 151.34314 160 150 158.65686 150 157 L 150 145 Z"/>
    <path id="path16" fill="#6b7177" stroke="none" visibility="hidden" d="M 161.100006 155 L 163.199997 155 L 163.199997 153.399994 L 164.199997 153.399994 L 164.199997 152 L 163.199997 152 L 163.199997 147 L 160.5 147 L 157.5 152 L 157.5 153.300003 L 161.100006 153.300003 L 161.100006 154.899994 Z M 161.100006 152 L 159.399994 152 L 161.199997 149 L 161.199997 152 Z"/>
    <path id="path17" fill="#108060" stroke="none" d="M 89 113 C 89 126.254837 99.745163 137 113 137 C 126.254837 137 137 126.254837 137 113 C 137 99.745163 126.254837 89 113 89 C 99.745163 89 89 99.745163 89 113 Z"/>
    <path id="path18" fill="#ffffff" fill-rule="evenodd" stroke="none" visibility="hidden" d="M 97.900002 113 C 97.900002 114.099998 98.800003 115 99.900002 115 L 124.699997 115 C 125.804573 115 126.699997 114.104568 126.699997 113 C 126.699997 111.895432 125.804573 111 124.699997 111 L 99.900002 111 C 98.795433 111 97.900002 111.895432 97.900002 113 Z"/>
    <path id="Plus" fill="#ffffff" fill-rule="evenodd" stroke="none" d="M 123 114.85733 L 114.85733 114.85733 L 114.85733 123 L 110.942589 123 L 110.942589 114.85733 L 102.799919 114.85733 L 102.799919 110.942589 L 110.942589 110.942589 L 110.942589 102.799919 L 114.85733 102.799919 L 114.85733 110.942589 L 123 110.942589 L 123 114.85733 Z"/>
    <path id="path19" fill="#b6babf" stroke="none" d="M 48.700001 76.399994 L 69 76.399994 C 70.656853 76.399994 72 75.056854 72 73.399994 C 72 71.743149 70.656853 70.399994 69 70.399994 L 52.5 70.399994 C 51.138035 72.338028 49.869907 74.340332 48.700001 76.399994 Z"/>
</svg>
